<svg xmlns="http://www.w3.org/2000/svg" style="display: none;">
  
    <symbol id="icon-add" viewBox="0 0 512 512">
      <path d="m423 512l-346 0c-42 0-77-34-77-77l0-346 45 0 0 346c0 18 14 33 32 33l346 0 0 44z m0-89l-245 0c-49 0-89-40-89-89l0-245c0-49 40-89 89-89l245 0c49 0 89 40 89 89l0 245c0 49-40 89-89 89z m-245-378c-24 0-44 19-44 44l0 245c0 24 20 44 44 44l245 0c25 0 45-20 45-44l0-245c0-25-20-44-45-44z m222 178l0-23-88 0 0-88-23 0 0 88-88 0 0 23 88 0 0 88 23 0 0-88z"/>
    </symbol>
  
    <symbol id="icon-alert" viewBox="0 0 512 512">
      <path d="m256 39l217 434-434 0 217-434m0-39c-15 0-29 8-35 22l-217 433c-6 12-5 27 2 38 7 12 20 19 33 19l434 0c13 0 26-7 33-19 7-11 8-26 2-38l-217-433c-6-14-20-22-35-22z m-24 174l48 0 0 167-48 0z m0 215l48 0 0 47-48 0z"/>
    </symbol>
  
    <symbol id="icon-bullet" viewBox="0 0 512 512">
      <path d="m405 256c0 82-67 149-149 149-82 0-149-67-149-149 0-82 67-149 149-149 82 0 149 67 149 149z"/>
    </symbol>
  
    <symbol id="icon-check" viewBox="0 0 512 512">
      <path d="m67 250l-46 45 146 146 324-324-46-46-278 279z"/>
    </symbol>
  
    <symbol id="icon-email" viewBox="0 0 512 512">
      <path d="m447 104l0 0 0 0c-15-12-33-19-52-19l-278 0c-19 0-37 7-52 19l0 0 0 0c-20 15-33 39-33 67l0 170c0 47 38 86 85 86l278 0c47 0 85-39 85-86l0-170c0-28-13-52-33-67z m-330 24l278 0c4 0 8 1 12 2l-151 100-151-100c4-1 8-2 12-2z m320 213c0 24-19 43-42 43l-278 0c-23 0-42-19-42-43l0-170c0-3 0-6 1-9l180 120 180-120c1 3 1 6 1 9z"/>
    </symbol>
  
    <symbol id="icon-lock" viewBox="0 0 512 512">
      <path d="m395 160l-22 0 0-64c0-47-38-85-85-85l-64 0c-47 0-85 38-85 85l0 64-22 0c-47 0-85 38-85 85l0 171c0 47 38 85 85 85l278 0c47 0 85-38 85-85l0-171c0-47-38-85-85-85z m-214-64c0-24 19-43 43-43l64 0c24 0 43 19 43 43l0 64-150 0z m256 320c0 24-19 43-42 43l-278 0c-23 0-42-19-42-43l0-171c0-23 19-42 42-42l278 0c23 0 42 19 42 42z m-128-75c0 30-24 54-53 54-29 0-53-24-53-54 0-29 24-53 53-53 29 0 53 24 53 53z"/>
    </symbol>
  
    <symbol id="icon-paper" viewBox="0 0 512 512">
      <path d="m395 512l-278 0c-47 0-85-38-85-85l0-342c0-47 38-85 85-85l278 0c47 0 85 38 85 85l0 342c0 47-38 85-85 85z m-278-469c-23 0-42 19-42 42l0 342c0 23 19 42 42 42l278 0c23 0 42-19 42-42l0-342c0-23-19-42-42-42z m22 106l234 0 0 43-234 0z m0 86l234 0 0 42-234 0z m0 85l149 0 0 43-149 0z"/>
    </symbol>
  
    <symbol id="icon-phone" viewBox="0 0 512 512">
      <path d="m341 21l-170 0c-36 0-64 29-64 64l0 342c0 35 28 64 64 64l170 0c36 0 64-29 64-64l0-342c0-35-28-64-64-64z m22 363l-214 0 0-320 214 0z"/>
    </symbol>
  
    <symbol id="icon-photo" viewBox="0 0 512 512">
      <path d="m430 481l-348 0c-45 0-82-36-82-82l0-225c0-45 37-82 82-82 0-34 28-61 61-61l82 0c34 0 62 27 62 61l143 0c45 0 82 37 82 82l0 225c0 46-37 82-82 82z m-348-348c-23 0-41 18-41 41l0 225c0 23 18 41 41 41l348 0c23 0 41-18 41-41l0-225c0-23-18-41-41-41l-184 0 0-41c0-11-9-20-21-20l-82 0c-11 0-20 9-20 20l0 41z m176 228c-41 0-74-33-74-73 0-40 33-73 74-73 40 0 73 33 73 73 0 40-33 73-73 73z m0-105c-18 0-33 14-33 32 0 18 15 32 33 32 17 0 32-14 32-32 0-18-15-32-32-32z"/>
    </symbol>
  
    <symbol id="icon-question" viewBox="0 0 512 512">
      <path d="m256 75c-100 0-181 81-181 181 0 100 81 181 181 181 100 0 181-81 181-181 0-100-81-181-181-181z m13 267l-26 0 0-26 26 0z m36-112c-1 4-2 8-4 11-2 3-4 6-7 8-2 3-5 6-7 8-3 2-5 5-8 7-2 3-4 5-6 8-2 3-4 6-5 9-1 3-2 7-2 11l0 9-20 0 0-11c1-7 2-12 4-17 2-4 5-9 8-12 3-4 6-7 10-10 3-3 6-6 9-10 3-3 5-7 7-11 2-4 2-9 2-15-1-8-3-15-8-20-5-5-12-7-20-7-6 0-11 1-15 3-4 2-7 5-10 8-3 4-5 8-6 12-1 5-2 10-2 16l-20 0c0-8 1-16 3-23 3-7 6-13 11-18 4-5 10-9 16-12 7-2 14-4 23-4 7 0 14 1 20 3 6 2 11 6 15 10 5 4 8 8 10 14 3 6 4 13 4 20 0 5-1 9-2 13z"/>
    </symbol>
  
    <symbol id="icon-tick-check" viewBox="0 0 512 512">
      <path d="m173 217l-28 29 91 91 202-203-28-28-174 174z m245 39c0 89-73 162-162 162-89 0-162-73-162-162 0-89 73-162 162-162 16 0 30 2 45 6l32-32c-24-9-51-15-77-15-111 0-203 92-203 203 0 111 92 203 203 203 111 0 203-92 203-203z"/>
    </symbol>
  
    <symbol id="icon-user" viewBox="0 0 512 512">
      <path d="m256 178c-49 0-89-40-89-89 0-49 40-89 89-89 49 0 89 40 89 89 0 49-40 89-89 89z m0-133c-25 0-45 19-45 44 0 25 20 45 45 45 25 0 45-20 45-45 0-25-20-44-45-44z m111 467l-222 0c-49 0-89-40-89-89l0-51c0-89 84-167 154-167l93 0c69 0 153 78 153 167l0 51c0 49-40 89-89 89z m-157-262c-25 0-110 33-110 122l0 51c0 24 20 45 45 45l222 0c25 0 45-21 45-45l0-51c0-89-84-122-109-122l-93 0z"/>
    </symbol>
  
    <symbol id="icon-arrow-next" viewBox="0 0 512 512">
      <path d="m385 278l-342 0 0-43 342 0-82-85 30-30 136 136-136 136-30-30z"/>
    </symbol>
  
    <symbol id="icon-arrow-right" viewBox="0 0 512 512">
      <path d="m188 330l84-74-84-74 26-22 110 96-110 96z"/>
    </symbol>
  
    <symbol id="icon-close" viewBox="0 0 512 512">
      <path d="m405 137l-30-30-119 119-119-119-30 30 119 119-119 119 30 30 119-119 119 119 30-30-119-119z"/>
    </symbol>
  
    <symbol id="icon-delete" viewBox="0 0 512 512">
      <path d="m256 75c-100 0-181 81-181 181 0 100 81 181 181 181 100 0 181-81 181-181 0-100-81-181-181-181z m77 234l-24 24-52-52-53 53-26-26 53-53-52-52 24-24 52 52 53-53 26 26-53 53z"/>
    </symbol>
  
    <symbol id="icon-big-scratch" viewBox="0 0 512 512">
      <path d="m456 234c-9 0-16 7-16 16l0 230-408 0 0-410 257 0c9 0 16-8 16-16 0-9-7-16-16-16l-273 0c-9 0-16 7-16 16l0 442c0 9 7 16 16 16l440 0c9 0 16-7 16-16l0-246c0-9-7-16-16-16z m1-209c-25-17-43-25-59-25-14 0-26 7-34 19l-2 2c-3 3-7 9-11 15l-124 180c-1 2-2 5-2 8l-7 116c0 5 2 10 7 13 2 2 6 4 9 4 2 0 4-1 5-1l116-40c3-1 6-3 8-6l118-171 6-9c5-7 9-12 11-15l2-3c27-39-17-69-43-87z m-181 241c1 0 16 4 21 16 2 5 7 9 13 10 0 0 3 1 8 3l-67 23 4-72c5 3 8 6 9 10 2 5 7 9 12 10z m-10-51l104-152 1-1c13 3 31 11 47 22 16 11 30 25 38 36l-109 156c-9-8-18-12-25-14-8-14-23-22-32-25-6-10-15-17-24-22z m132-183c9 0 22 6 41 19 39 27 39 35 36 41-10-12-24-24-39-34-15-10-30-18-44-23 2-3 4-3 6-3z"/>
    </symbol>
  
    <symbol id="icon-big-notification" viewBox="0 0 512 512">
      <path d="m508 318l-90-245c-4-9-13-15-23-15-3 0-5 0-8 1-6 2-11 7-14 13-1 3-2 7-2 11l-349 238c-2 0-5 0-7 1-5 2-9 6-11 11-2 4-2 10 0 15l17 45c3 8 11 14 19 14 3 0 5-1 8-2 2-1 5-3 7-5l125-17c-1 3-1 6 0 8l3 17c7 36 28 44 45 45l0 0c1 0 1 0 2 0l61-7c18-3 30-9 37-19 6-8 8-18 6-29l-5-27c-1-3-2-5-4-7l145-20c4 4 10 6 16 6 1 0 3 0 4 0 1 0 3-1 4-1 6-2 11-7 13-12 3-6 3-13 1-19z m-473 27l54-36 20 56-65 8c0 1 0 1 0 1l-11-27c1 0 2-1 2-2z m422-27l-319 43-25-68 267-183z m-156 58l5 27c1 5 0 7-1 8-1 1-5 5-17 7l-60 7c-6 0-14-1-18-22l-3-17c0-2-1-4-3-6l99-13c-2 3-2 6-2 9z"/>
    </symbol>
  
    <symbol id="icon-big-graph" viewBox="0 0 512 512">
      <path d="m494 438l-79 0 0-182c0-9-7-16-16-16-9 0-16 7-16 16l0 182-58 0 0-281c0-9-7-16-16-16-9 0-16 7-16 16l0 281-58 0 0-218c0-9-7-16-16-16-9 0-16 7-16 16l0 218-58 0 0-107c0-9-7-16-16-16-9 0-16 7-16 16l0 107-78 0 0-380c0-9-7-17-16-17-9 0-17 8-17 17l0 396c0 9 8 17 17 17l475 0c9 0 17-8 17-17 0-9-8-16-17-16z"/>
    </symbol>
  
    <symbol id="icon-big-check" viewBox="0 0 512 512">
      <path d="m503 67c-3-2-6-3-10-3-4 0-8 2-11 5l-220 273c-1 1-1 1-1 2l-59 74c-1 0-1 1-2 1-1 0-2-1-2-1l-171-155c-6-6-16-5-21 1-3 3-4 6-4 10 0 4 2 8 5 10l171 156c6 5 14 8 21 8 1 0 2 0 3 0 9-1 17-5 22-12l61-76c0 0 0 0 1-1l219-271c5-6 4-16-2-21z"/>
    </symbol>
  
    <symbol id="icon-arrow-prev" viewBox="0 0 512 512">
      <path d="m209 362l-30 30-136-136 136-136 30 30-82 85 342 0 0 43-342 0z"/>
    </symbol>
  
    <symbol id="icon-arrow-down-big" viewBox="0 0 512 512">
      <path d="m148 149l108 124 108-124 33 38-141 161-141-161z"/>
    </symbol>
  
    <symbol id="icon-arrow-down-small" viewBox="0 0 512 512">
      <path d="m182 188l74 84 74-84 22 26-96 110-96-110z"/>
    </symbol>
  
    <symbol id="icon-write" viewBox="0 0 512 512">
      <path d="m43 448l81 0 234-237-81-81-234 237z m377-329l-49-49c-8-8-21-8-30 0-21 22-18 58 6 83l-7-7c24 24 63 23 80 3 9-8 9-21 0-30z m-185 286l-43 43 277 0 0-43z"/>
    </symbol>
  
    <symbol id="icon-video-play" viewBox="0 0 512 512">
      <path d="m198 360c-22 0-38-17-38-42l0-124c0-25 16-42 38-42 7 0 15 2 22 5l131 66c15 8 24 20 24 33 0 13-9 25-24 33l-131 66c-7 3-15 5-22 5z m0-171c0 0-1 2-1 5l0 124c0 3 1 5 1 6l0-1c1 0 3 0 6-1l131-66c0 0 0 0 0 0 0 0 0 0 0 0l-131-66c-3-1-5-1-6-1z m58 323c-141 0-256-115-256-256 0-141 115-256 256-256 141 0 256 115 256 256 0 141-115 256-256 256z m0-451c-107 0-195 88-195 195 0 107 88 195 195 195 107 0 195-88 195-195 0-107-88-195-195-195z"/>
    </symbol>
  
</svg>
